#!OML:ASF Y:\EmotionMaleHayes\Project 1\Capture day 1\Session 1\Male1.ASF
:FULLY-SPECIFIED
:DEGREES
161
root 6.46194 15.3652 0.736691 62.3385 86.9196 76.5546
lowerback 15.589 1.74961 -4.30964
upperback 6.56697 2.03262 -0.923146
thorax -1.86149 1.11773 1.11578
lowerneck -24.3721 0.54924 1.34707
upperneck 30.5194 0.275531 1.14408
head 14.6391 0.610602 0.33667
rclavicle 8.87077e-015 4.57205e-015
rhumerus 39.6978 17.0881 -44.9019
rradius 46.4086
rwrist -1.85244
rhand 19.2051 -36.7697
rfingers 7.12502
rthumb 43.7938 -60.7291
lclavicle 8.87077e-015 4.57205e-015
lhumerus 42.0952 -19.6039 40.0459
lradius 45.6881
lwrist -2.17156
lhand 19.634 -18.8581
lfingers 7.12502
lthumb 44.194 4.95203
rfemur -4.46975 -7.54487 2.75262
rtibia 54.6164
rfoot -30.9894 -5.57773
rtoes -13.9727
lfemur 0.72473 11.2827 -6.35536
ltibia 52.4529
lfoot -31.2463 -0.524573
ltoes -13.7843
162
root 6.46228 15.3648 0.737347 61.9144 86.9212 76.1693
lowerback 15.6804 1.7547 -4.32048
upperback 6.54677 2.03196 -0.913602
thorax -1.93174 1.11837 1.12879
lowerneck -24.3528 0.564669 1.25731
upperneck 30.5239 0.308679 1.22557
head 14.6365 0.62644 0.391998
rclavicle -6.70898e-016 9.93923e-015
rhumerus 39.6028 17.1432 -44.8574
rradius 46.5052
rwrist -1.90199
rhand 19.1175 -36.6825
rfingers 7.12502
rthumb 43.7121 -60.672
lclavicle -6.70898e-016 9.93923e-015
lhumerus 42.1045 -19.6498 39.9778
lradius 45.6635
lwrist -2.11815
lhand 19.6075 -18.8408
lfingers 7.12502
lthumb 44.1692 4.97865
rfemur -4.42854 -7.51055 2.77478
rtibia 54.6994
rfoot -31.1104 -5.45189
rtoes -13.7729
lfemur 0.785814 11.3054 -6.32105
ltibia 52.4405
lfoot -31.2754 -0.452125
ltoes -14.1443
163
root 6.46261 15.3643 0.737486 60.151 87.0014 74.4646
lowerback 15.7537 1.76754 -4.20098
upperback 6.5548 2.06359 -0.911511
thorax -1.96068 1.1368 1.0562
lowerneck -24.3235 0.601731 1.39152
upperneck 30.507 0.332634 1.15501
head 14.6233 0.642082 0.344375
rclavicle 1.13059e-014 -1.86858e-014
rhumerus 39.6143 17.1162 -44.8932
rradius 46.4679
rwrist -1.93196
rhand 19.1573 -36.7251
rfingers 7.12502
rthumb 43.7493 -60.7008
lclavicle 1.13059e-014 -1.86858e-014
lhumerus 42.1923 -19.7438 39.7917
lradius 45.6688
lwrist -1.93952
lhand 19.4664 -18.7348
lfingers 7.12502
lthumb 44.0376 5.13402
rfemur -4.34791 -7.45611 2.91971
rtibia 54.7219
rfoot -31.1899 -5.38316
rtoes -13.7667
lfemur 0.880569 11.3616 -6.15326
ltibia 52.4859
lfoot -31.2963 -0.448127
ltoes -14.3857
164
root 6.46229 15.3645 0.73704 60.2025 87.0049 74.5355
lowerback 15.7308 1.76334 -4.19763
upperback 6.59467 2.06341 -0.924393
thorax -1.90574 1.13676 1.04238
lowerneck -24.4047 0.61696 1.51624
upperneck 30.5265 0.346323 1.02043
head 14.6502 0.642288 0.27084
rclavicle 7.10655e-015 0
rhumerus 39.7042 17.0756 -44.922
rradius 46.4075
rwrist -1.91998
rhand 19.261 -36.7881
rfingers 7.12502
rthumb 43.846 -60.7282
lclavicle 7.10655e-015 0
lhumerus 42.223 -19.7449 39.7139
lradius 45.6791
lwrist -1.78391
lhand 19.2517 -18.7293
lfingers 7.12502
lthumb 43.8374 5.21395
rfemur -4.31501 -7.46678 2.90344
rtibia 54.6526
rfoot -31.1597 -5.51277
rtoes -14.2884
lfemur 0.902651 11.3482 -6.14474
ltibia 52.5092
lfoot -31.3436 -0.740573
ltoes -13.1371
165
root 6.46315 15.3647 0.736769 62.0112 86.8864 76.3175
lowerback 15.6896 1.75765 -4.35491
upperback 6.58102 2.03354 -0.955881
thorax -1.89962 1.11967 1.10395
lowerneck -24.3625 0.616247 1.40987
upperneck 30.4656 0.361237 1.09997
head 14.6132 0.646492 0.323622
rclavicle 2.5842e-015 -2.40529e-014
rhumerus 39.7325 17.0855 -45.0032
rradius 46.3778
rwrist -1.81177
rhand 19.4101 -36.847
rfingers 7.12502
rthumb 43.9852 -60.7354
lclavicle 2.5842e-015 -2.40529e-014
lhumerus 42.1598 -19.737 39.7566
lradius 45.666
lwrist -1.74695
lhand 19.296 -18.7887
lfingers 7.12502
lthumb 43.8787 5.13931
rfemur -4.33926 -7.51982 2.69292
rtibia 54.6217
rfoot -31.1362 -5.61929
rtoes -14.6117
lfemur 0.873696 11.2997 -6.34451
ltibia 52.4769
lfoot -31.3595 -0.821128
ltoes -12.7052
166
root 6.46284 15.3643 0.737257 63.0212 86.8493 77.3189
lowerback 15.7081 1.74182 -4.42925
upperback 6.54854 1.99782 -0.967816
thorax -1.94328 1.10132 1.13822
lowerneck -24.2386 0.626348 1.27268
upperneck 30.3559 0.378987 1.2592
head 14.5367 0.659791 0.413815
rclavicle 1.86112e-014 1.39149e-015
rhumerus 39.7396 17.1306 -45.0196
rradius 46.377
rwrist -1.78214
rhand 19.4005 -36.8171
rfingers 7.12502
rthumb 43.9762 -60.7089
lclavicle 1.86112e-014 1.39149e-015
lhumerus 42.0596 -19.7362 39.7724
lradius 45.6894
lwrist -1.78254
lhand 19.3157 -18.7336
lfingers 7.12502
lthumb 43.8971 5.18759
rfemur -4.33192 -7.57105 2.60832
rtibia 54.5846
rfoot -31.072 -5.6991
rtoes -14.7896
lfemur 0.831865 11.2917 -6.42653
ltibia 52.5284
lfoot -31.3851 -0.598949
ltoes -13.889
167
root 6.4607 15.3636 0.7381 62.1519 86.9172 76.483
lowerback 15.7578 1.73763 -4.36229
upperback 6.55897 2.00086 -0.956838
thorax -1.95743 1.10426 1.11028
lowerneck -24.239 0.653924 1.35321
upperneck 30.355 0.408799 1.19356
head 14.5368 0.67219 0.378875
rclavicle -2.68359e-015 5.36719e-015
rhumerus 39.7633 17.1372 -44.9525
rradius 46.3757
rwrist -1.88022
rhand 19.271 -36.6715
rfingers 7.12502
rthumb 43.8554 -60.6081
lclavicle -2.68359e-015 5.36719e-015
lhumerus 42.0515 -19.7518 39.6624
lradius 45.7339
lwrist -1.76945
lhand 19.1999 -18.6654
lfingers 7.12502
lthumb 43.789 5.29576
rfemur -4.29826 -7.56274 2.71423
rtibia 54.5525
rfoot -31.0396 -5.72852
rtoes -15.0564
lfemur 0.839682 11.33 -6.30491
ltibia 52.6274
lfoot -31.4739 -0.72677
ltoes -13.5226
168
root 6.46001 15.3635 0.738901 61.3414 86.9852 75.7002
lowerback 15.8116 1.75384 -4.26285
upperback 6.56695 2.03518 -0.949626
thorax -1.977 1.12344 1.05446
lowerneck -24.2663 0.629204 1.36899
upperneck 30.3658 0.365897 1.1915
head 14.5477 0.6557 0.367356
rclavicle -1.55052e-014 1.76918e-014
rhumerus 39.7029 17.0815 -44.9601
rradius 46.3753
rwrist -1.90892
rhand 19.1914 -36.618
rfingers 7.12502
rthumb 43.781 -60.582
lclavicle -1.55052e-014 1.76918e-014
lhumerus 42.1489 -19.8336 39.531
lradius 45.7623
lwrist -1.67521
lhand 19.2416 -18.6568
lfingers 7.12502
lthumb 43.8279 5.28999
rfemur -4.26573 -7.54509 2.82117
rtibia 54.5617
rfoot -31.094 -5.67732
rtoes -15.0269
lfemur 0.898217 11.3216 -6.18271
ltibia 52.5559
lfoot -31.489 -0.985152
ltoes -12.375
169
root 6.46077 15.3633 0.739886 61.7544 87.0073 76.1101
lowerback 15.8434 1.77324 -4.23953
upperback 6.53298 2.05947 -0.950576
thorax -2.03044 1.1364 1.03439
lowerneck -24.2429 0.552634 1.29762
upperneck 30.3681 0.258883 1.26532
head 14.5435 0.613245 0.389169
rclavicle -7.77745e-015 -1.59028e-015
rhumerus 39.5782 17.0599 -45.0184
rradius 46.3768
rwrist -1.85518
rhand 19.1944 -36.6932
rfingers 7.12502
rthumb 43.7839 -60.6563
lclavicle -7.77745e-015 -1.59028e-015
lhumerus 42.1846 -19.9339 39.5251
lradius 45.7488
lwrist -1.63507
lhand 19.2272 -18.7213
lfingers 7.12502
lthumb 43.8145 5.23047
rfemur -4.25475 -7.57045 2.8289
rtibia 54.575
rfoot -31.1226 -5.61726
rtoes -14.7158
lfemur 0.905006 11.2952 -6.16692
ltibia 52.4612
lfoot -31.4225 -0.811852
ltoes -13.2147
170
root 6.46088 15.3623 0.741004 62.2115 86.9826 76.5764
lowerback 15.8236 1.77672 -4.30761
upperback 6.53208 2.055 -0.955811
thorax -2.02217 1.1331 1.06854
lowerneck -24.2749 0.537879 1.3981
upperneck 30.4292 0.23725 1.1479
head 14.578 0.599747 0.320584
rclavicle 5.41688e-015 -8.54774e-015
rhumerus 39.528 17.0844 -45.0459
rradius 46.3912
rwrist -1.81889
rhand 19.272 -36.8091
rfingers 7.12502
rthumb 43.8563 -60.7454
lclavicle 5.41688e-015 -8.54774e-015
lhumerus 42.1315 -19.9241 39.5596
lradius 45.7427
lwrist -1.66931
lhand 19.3681 -18.9462
lfingers 7.12502
lthumb 43.9459 4.95677
rfemur -4.23914 -7.56755 2.78621
rtibia 54.5268
rfoot -31.0544 -5.56465
rtoes -14.4673
lfemur 0.887665 11.2848 -6.19627
ltibia 52.4918
lfoot -31.389 -0.77768
ltoes -13.3262
171
root 6.46037 15.3628 0.740402 62.8486 86.924 77.202
lowerback 15.7813 1.76925 -4.37402
upperback 6.53762 2.03738 -0.996908
thorax -1.99316 1.12358 1.06729
lowerneck -24.292 0.566724 1.55374
upperneck 30.4732 0.26053 1.01966
head 14.6019 0.610028 0.246444
rclavicle 1.35174e-014 -1.41137e-014
rhumerus 39.5069 17.0756 -45.1259
rradius 46.3713
rwrist -1.77989
rhand 19.2829 -36.8039
rfingers 7.12502
rthumb 43.8665 -60.7364
lclavicle 1.35174e-014 -1.41137e-014
lhumerus 42.1325 -19.9342 39.4605
lradius 45.7518
lwrist -1.63262
lhand 19.5759 -19.0958
lfingers 7.12502
lthumb 44.1398 4.73475
rfemur -4.24135 -7.5821 2.69435
rtibia 54.4758
rfoot -30.9989 -5.51293
rtoes -14.4283
lfemur 0.861744 11.2769 -6.28336
ltibia 52.5249
lfoot -31.4149 -0.985168
ltoes -12.2949
